<svg width="16" height="16" viewBox="0 0 16 16" fill="none" xmlns="http://www.w3.org/2000/svg">
<path d="M8.33348 14.6667H2.72014C1.94681 14.6667 1.31348 14.0467 1.31348 13.2867V3.39336C1.31348 1.6467 2.61348 0.853363 4.20681 1.63336L7.16681 3.0867C7.80681 3.40003 8.33348 4.23336 8.33348 4.94003V14.6667Z" stroke="#999999" stroke-linecap="round" stroke-linejoin="round"/>
<path d="M14.6463 10.0401V12.5601C14.6463 14.0001 13.9797 14.6668 12.5397 14.6668H8.33301V6.94678L8.64634 7.01344L11.6463 7.68678L12.9997 7.98678C13.8797 8.18011 14.5997 8.63344 14.6397 9.91344C14.6463 9.95344 14.6463 9.99344 14.6463 10.0401Z" stroke="#999999" stroke-linecap="round" stroke-linejoin="round"/>
<path d="M3.66699 6.00012H5.98033" stroke="#999999" stroke-linecap="round" stroke-linejoin="round"/>
<path d="M3.66699 8.66675H5.98033" stroke="#999999" stroke-linecap="round" stroke-linejoin="round"/>
<path d="M11.6465 7.68676V9.83343C11.6465 10.6601 10.9732 11.3334 10.1465 11.3334C9.31982 11.3334 8.64648 10.6601 8.64648 9.83343V7.01343L11.6465 7.68676Z" stroke="#999999" stroke-linecap="round" stroke-linejoin="round"/>
<path d="M14.6398 9.91343C14.5998 10.7001 13.9465 11.3334 13.1465 11.3334C12.3198 11.3334 11.6465 10.6601 11.6465 9.83343V7.68677L12.9998 7.98677C13.8798 8.1801 14.5998 8.63343 14.6398 9.91343Z" stroke="#999999" stroke-linecap="round" stroke-linejoin="round"/>
</svg>
