<svg width="30" height="30" viewBox="0 0 30 30" fill="none" xmlns="http://www.w3.org/2000/svg">
<path fill-rule="evenodd" clip-rule="evenodd" d="M18.8031 9.22968L11.951 16.0819C11.9189 16.1139 11.9417 16.1686 11.987 16.1684C13.8993 16.1649 14.9539 16.1637 15.8052 16.4321C15.8237 16.4379 15.8426 16.4333 15.8563 16.4196L20.9247 11.3512C21.1823 11.0936 21.515 10.9762 21.8836 11.0222L23.8329 11.2658C24.1981 11.3114 24.5315 11.197 24.7918 10.9367L26.1288 9.59964C26.3649 9.36348 26.4792 9.07128 26.4659 8.73756L26.3599 6.10122C26.3581 6.057 26.3046 6.03612 26.2734 6.06738C25.4474 6.8934 24.6213 7.71948 23.7953 8.5455C23.5385 8.8023 23.1196 8.80224 22.8629 8.5455L21.609 7.29162C21.3522 7.03482 21.3522 6.61602 21.609 6.35922C22.4351 5.5332 23.2611 4.70712 24.0872 3.88104C24.1185 3.84972 24.0976 3.79626 24.0534 3.79452L21.417 3.68856C21.0833 3.67512 20.791 3.78942 20.5548 4.02552L19.2177 5.36268C18.9575 5.6229 18.8431 5.95632 18.8887 6.32142L19.1323 8.27076C19.1782 8.63946 19.0607 8.97216 18.8031 9.22968ZM20.4314 23.0234C19.8743 23.2526 19.4414 23.7718 19.4414 24.583C19.4414 25.5383 20.2157 26.3125 21.1709 26.3125C22.1262 26.3125 22.9005 25.5383 22.9005 24.583C22.9005 23.7548 22.4615 23.2526 21.893 23.0162L21.8928 23.0168C21.4146 22.8257 20.9124 22.8441 20.433 23.0228C20.4324 23.023 20.432 23.0231 20.4314 23.0234ZM9.7471 23.3599C9.07174 22.6846 7.97644 22.6846 7.30108 23.3599C6.62572 24.0353 6.62572 25.1306 7.30108 25.8059C7.9765 26.4813 9.07174 26.4813 9.7471 25.8059C10.4225 25.1306 10.4225 24.0353 9.7471 23.3599ZM18.0185 18.8876C18.486 19.299 19.7105 19.7573 20.2604 19.9116C21.8806 20.3664 23.6866 20.7217 25.2858 21.0826C26.0104 21.2461 26.6406 21.7184 26.7564 22.4438C26.8296 22.9024 26.7811 23.4698 26.7576 24.0022C26.7524 24.1199 26.6488 24.2024 26.5273 24.2024H23.6819C23.6565 24.2024 23.6353 24.1841 23.6317 24.1589C23.4951 23.2207 22.9049 22.6048 22.1751 22.3127L22.1753 22.3121C20.7518 21.7432 18.9586 22.4602 18.7104 24.1589C18.7067 24.184 18.6855 24.2023 18.6602 24.2023H11.0289C11.004 24.2023 10.9831 24.1847 10.9789 24.1601C10.8903 23.6418 10.6415 23.1781 10.2851 22.8218C8.92234 21.459 6.61048 22.1048 6.11926 23.9324C6.1123 23.9584 6.08644 23.9743 6.0601 23.9689L3.66076 23.476C3.433 23.4292 3.2041 23.2756 3.2041 23.0402V20.1388C3.2041 19.735 3.56014 19.462 3.95566 19.3745L6.31738 18.8518C6.3967 18.8343 6.47104 18.7913 6.52696 18.7241C8.02078 16.9249 8.23366 16.925 11.219 16.9268C11.45 16.9269 11.6966 16.927 11.9606 16.9265C13.8944 16.922 14.8696 16.9249 15.609 17.1668C16.3269 17.4018 16.8965 17.9005 18.0185 18.8876ZM21.3394 12.0269C21.3318 12.0079 21.3358 11.9873 21.3502 11.9726C21.4784 11.8417 21.5726 11.7296 21.7917 11.757L23.7411 12.0005C24.2739 12.0671 24.7877 11.9146 25.1915 11.5741C25.22 11.55 25.2635 11.5637 25.2732 11.5997L25.8569 13.778C25.8626 13.7996 25.8542 13.8215 25.8355 13.8337L24.1269 14.9432C24.1136 14.9519 24.1057 14.9648 24.1041 14.9806C24.0152 15.8656 23.7816 16.7221 23.4221 17.5186C23.4155 17.5331 23.4159 17.5483 23.4231 17.5625L24.3492 19.3802C24.3594 19.4002 24.3557 19.4233 24.3399 19.4392L23.8196 19.9595C23.8071 19.9721 23.7903 19.9769 23.773 19.9732C22.656 19.7302 21.5373 19.4813 20.4655 19.1803C20.2232 19.1123 19.858 18.9854 19.4967 18.8351C19.4605 18.8201 19.4543 18.7719 19.4854 18.7481C21.5802 17.1455 22.2806 14.3836 21.3394 12.0269ZM11.9118 10.0921C10.2867 11.7172 9.83506 14.0713 10.5567 16.1017C10.5686 16.1348 10.5443 16.1692 10.5091 16.1693C8.47564 16.1768 7.8112 16.2647 6.89548 17.168C6.86776 17.1953 6.82096 17.1827 6.81088 17.145L6.11728 14.5564C6.11152 14.5348 6.11992 14.5129 6.13864 14.5007L7.8472 13.3912C7.86052 13.3825 7.86844 13.3695 7.87006 13.3537C7.95892 12.4687 8.1925 11.6123 8.55208 10.8158C8.55862 10.8013 8.55826 10.7861 8.55106 10.7719L7.6249 8.95416C7.61476 8.93424 7.61842 8.91108 7.6342 8.8953L10.7152 5.81436C10.731 5.79858 10.7542 5.79486 10.7741 5.805L12.5901 6.73032C12.6042 6.73752 12.6194 6.73794 12.6339 6.7314C13.4379 6.37008 14.2961 6.14004 15.173 6.05106C15.1889 6.04944 15.2018 6.04158 15.2105 6.0282L16.3206 4.3188C16.3328 4.30008 16.3547 4.29162 16.3763 4.29744L18.5546 4.88112C18.5906 4.89078 18.6043 4.93434 18.5802 4.96284C18.2397 5.3667 18.0872 5.88042 18.1537 6.41328L18.3973 8.36274C18.4247 8.58174 18.3126 8.67594 18.1817 8.80416C18.167 8.8185 18.1464 8.82258 18.1274 8.81496C16.052 7.98618 13.5922 8.41164 11.9118 10.0921Z" fill="#D72A2A"/>
</svg>
