<svg width="22" height="22" viewBox="0 0 22 22" fill="none" xmlns="http://www.w3.org/2000/svg">
<path fill-rule="evenodd" clip-rule="evenodd" d="M13.7889 6.76849L8.76397 11.7934C8.74048 11.8169 8.75715 11.857 8.79037 11.8569C10.1927 11.8543 10.9661 11.8534 11.5904 12.0503C11.604 12.0545 11.6178 12.0511 11.6279 12.0411L15.3447 8.32429C15.5336 8.13539 15.7776 8.04924 16.0479 8.08303L17.4774 8.26163C17.7452 8.29507 17.9897 8.21121 18.1806 8.02033L19.1611 7.03979C19.3342 6.86661 19.418 6.65233 19.4082 6.4076L19.3305 4.47429C19.3292 4.44186 19.29 4.42655 19.2671 4.44947C18.6613 5.05522 18.0555 5.66101 17.4498 6.26676C17.2615 6.45508 16.9543 6.45503 16.766 6.26676L15.8465 5.34725C15.6582 5.15893 15.6582 4.85181 15.8465 4.66349C16.4523 4.05774 17.0581 3.45195 17.6639 2.84615C17.6869 2.82319 17.6715 2.78398 17.6391 2.78271L15.7058 2.705C15.461 2.69515 15.2467 2.77897 15.0735 2.95211L14.0929 3.93269C13.9021 4.12352 13.8182 4.36803 13.8516 4.63577L14.0303 6.06528C14.0639 6.33566 13.9778 6.57964 13.7889 6.76849ZM14.983 16.8839C14.5744 17.0519 14.2569 17.4327 14.2569 18.0276C14.2569 18.7281 14.8248 19.2959 15.5253 19.2959C16.2258 19.2959 16.7936 18.7281 16.7936 18.0276C16.7936 17.4202 16.4717 17.0519 16.0548 16.8786L16.0546 16.879C15.704 16.7389 15.3357 16.7524 14.9841 16.8834C14.9837 16.8836 14.9834 16.8837 14.983 16.8839ZM7.14781 17.1307C6.65254 16.6354 5.84933 16.6354 5.35406 17.1307C4.8588 17.6259 4.8588 18.4291 5.35406 18.9244C5.84937 19.4197 6.65254 19.4197 7.14781 18.9244C7.64307 18.4291 7.64307 17.6259 7.14781 17.1307ZM13.2135 13.851C13.5563 14.1527 14.4543 14.4887 14.8575 14.6019C16.0457 14.9354 17.3701 15.196 18.5429 15.4606C19.0742 15.5805 19.5364 15.9269 19.6213 16.4588C19.675 16.7951 19.6394 17.2113 19.6222 17.6017C19.6184 17.688 19.5424 17.7485 19.4533 17.7485H17.3666C17.348 17.7485 17.3325 17.735 17.3298 17.7166C17.2297 17.0285 16.7969 16.5769 16.2617 16.3627L16.2618 16.3623C15.2179 15.9451 13.9029 16.4708 13.7209 17.7166C13.7182 17.735 13.7027 17.7484 13.6841 17.7484H8.08778C8.06952 17.7484 8.05421 17.7355 8.05113 17.7175C7.98614 17.3374 7.80367 16.9973 7.54236 16.736C6.54298 15.7367 4.84762 16.2103 4.48739 17.5505C4.48229 17.5695 4.46333 17.5812 4.44401 17.5773L2.68449 17.2158C2.51747 17.1814 2.34961 17.0688 2.34961 16.8962V14.7685C2.34961 14.4724 2.61071 14.2722 2.90075 14.208L4.63268 13.8247C4.69085 13.8119 4.74537 13.7804 4.78637 13.731C5.88184 12.4117 6.03795 12.4118 8.22722 12.413C8.39657 12.4131 8.57746 12.4132 8.77106 12.4128C10.1892 12.4096 10.9043 12.4117 11.4465 12.5891C11.973 12.7614 12.3907 13.1271 13.2135 13.851ZM15.6488 8.81981C15.6432 8.80582 15.6462 8.79077 15.6567 8.77999C15.7508 8.68394 15.8199 8.60179 15.9805 8.62186L17.4101 8.80045C17.8008 8.84929 18.1776 8.7374 18.4737 8.4877C18.4946 8.47006 18.5265 8.48009 18.5336 8.50649L18.9616 10.1039C18.9659 10.1197 18.9597 10.1358 18.946 10.1447L17.693 10.9584C17.6833 10.9648 17.6774 10.9743 17.6763 10.9858C17.6111 11.6348 17.4398 12.2629 17.1761 12.847C17.1713 12.8577 17.1716 12.8688 17.1769 12.8792L17.856 14.2122C17.8635 14.2268 17.8608 14.2438 17.8492 14.2554L17.4677 14.637C17.4585 14.6462 17.4462 14.6498 17.4335 14.647C16.6143 14.4688 15.794 14.2864 15.008 14.0656C14.8303 14.0158 14.5625 13.9227 14.2975 13.8125C14.271 13.8014 14.2664 13.7661 14.2892 13.7486C15.8254 12.5734 16.339 10.548 15.6488 8.81981ZM8.73528 7.4009C7.54354 8.59264 7.21231 10.319 7.74155 11.8079C7.75021 11.8323 7.73239 11.8575 7.70661 11.8576C6.2154 11.863 5.72815 11.9275 5.05662 12.5899C5.03629 12.61 5.00197 12.6007 4.99458 12.5731L4.48594 10.6747C4.48172 10.6589 4.48788 10.6428 4.50161 10.6339L5.75455 9.82024C5.76432 9.81386 5.77013 9.80436 5.77131 9.79279C5.83648 9.14374 6.00777 8.51573 6.27146 7.93163C6.27626 7.92098 6.27599 7.90985 6.27071 7.89942L5.59153 6.56644C5.58409 6.55183 5.58678 6.53485 5.59835 6.52328L7.85775 4.26392C7.86932 4.25235 7.88635 4.24962 7.90091 4.25706L9.23266 4.93563C9.24304 4.94091 9.25418 4.94121 9.26478 4.93642C9.85438 4.67145 10.4837 4.50275 11.1268 4.4375C11.1384 4.43631 11.1479 4.43055 11.1543 4.42074L11.9684 3.16718C11.9773 3.15345 11.9934 3.14725 12.0092 3.15151L13.6067 3.57955C13.6331 3.58663 13.6431 3.61857 13.6254 3.63947C13.3757 3.93564 13.2639 4.31237 13.3126 4.70313L13.4913 6.13273C13.5114 6.29333 13.4292 6.36241 13.3332 6.45644C13.3224 6.46696 13.3073 6.46995 13.2933 6.46436C11.7714 5.85659 9.96755 6.16859 8.73528 7.4009Z" fill="#48494A"/>
</svg>
