<svg width="20" height="20" viewBox="0 0 20 20" fill="none" xmlns="http://www.w3.org/2000/svg">
<path d="M10 15.625C9.65833 15.625 9.375 15.3417 9.375 15V14.1667C9.375 13.825 9.65833 13.5417 10 13.5417C10.3417 13.5417 10.625 13.825 10.625 14.1667V15C10.625 15.3417 10.3417 15.625 10 15.625Z" fill="#48494A"/>
<path d="M10 18.9583C9.65833 18.9583 9.375 18.675 9.375 18.3333V17.5C9.375 17.1583 9.65833 16.875 10 16.875C10.3417 16.875 10.625 17.1583 10.625 17.5V18.3333C10.625 18.675 10.3417 18.9583 10 18.9583Z" fill="#48494A"/>
<path d="M1.66675 18.9583C1.61675 18.9583 1.56675 18.95 1.51675 18.9417C1.18341 18.8583 0.975081 18.5167 1.05841 18.1833L1.89175 14.85C1.97508 14.5167 2.30841 14.3083 2.65008 14.3917C2.98341 14.475 3.19175 14.8167 3.10841 15.15L2.27508 18.4833C2.20008 18.7667 1.95008 18.9583 1.66675 18.9583Z" fill="#48494A"/>
<path d="M18.1275 18.7522C17.8442 18.7522 17.5942 18.5605 17.5192 18.2772L16.6859 14.9439C16.6025 14.6105 16.8025 14.2689 17.1442 14.1855C17.4775 14.1022 17.8192 14.3022 17.9025 14.6439L18.7359 17.9772C18.8192 18.3105 18.6192 18.6522 18.2775 18.7355C18.2275 18.7439 18.1775 18.7522 18.1275 18.7522Z" fill="#48494A"/>
<path d="M15.9499 4.41665C15.9499 4.66665 15.7415 4.86665 15.4999 4.86665H4.6082C4.3582 4.86665 4.1582 4.65831 4.1582 4.41665C4.1582 4.16665 4.36654 3.96665 4.6082 3.96665H5.22487L5.4582 2.87498C5.67487 1.80831 6.12487 0.833313 7.92487 0.833313H12.1665C13.9665 0.833313 14.4249 1.80831 14.6415 2.86665L14.8749 3.95831H15.4915C15.7415 3.95831 15.9499 4.16665 15.9499 4.41665Z" fill="#48494A"/>
<path d="M16.2081 7.83336C16.1165 6.83336 15.8498 5.77502 13.9081 5.77502H6.19146C4.24979 5.77502 3.99146 6.84169 3.89146 7.83336L3.54979 11.5167C3.50813 11.975 3.65813 12.4334 3.97479 12.7834C4.29979 13.1334 4.74979 13.3334 5.23313 13.3334H6.36646C7.34979 13.3334 7.53313 12.775 7.65813 12.4L7.78313 12.0334C7.92479 11.6167 7.95813 11.5167 8.49979 11.5167H11.5998C12.1415 11.5167 12.1581 11.575 12.3165 12.0334L12.4415 12.4C12.5581 12.775 12.7498 13.3334 13.7248 13.3334H14.8581C15.3331 13.3334 15.7915 13.1334 16.1165 12.7834C16.4331 12.4417 16.5831 11.975 16.5415 11.5167L16.2081 7.83336ZM8.23313 9.10002H6.42479C6.17479 9.10002 5.97479 8.89169 5.97479 8.65002C5.97479 8.40836 6.18313 8.20002 6.42479 8.20002H8.24146C8.49146 8.20002 8.69146 8.40836 8.69146 8.65002C8.69146 8.89169 8.48313 9.10002 8.23313 9.10002ZM13.6748 9.10002H11.8581C11.6081 9.10002 11.4081 8.89169 11.4081 8.65002C11.4081 8.40836 11.6165 8.20002 11.8581 8.20002H13.6748C13.9248 8.20002 14.1248 8.40836 14.1248 8.65002C14.1248 8.89169 13.9248 9.10002 13.6748 9.10002Z" fill="#48494A"/>
</svg>
