<svg width="20" height="20" viewBox="0 0 20 20" fill="none" xmlns="http://www.w3.org/2000/svg">
<path d="M18.617 7.77496L16.9503 6.94163C16.642 6.79163 16.2587 6.90829 16.1087 7.21663C15.9503 7.53329 16.0753 7.90829 16.3837 8.05829L17.7087 8.71663V12.7083L14.5837 12.7166V4.16663C14.5837 2.49996 13.467 1.66663 12.0837 1.66663H5.41699C4.03366 1.66663 2.91699 2.49996 2.91699 4.16663V17.7083H1.66699C1.32533 17.7083 1.04199 17.9916 1.04199 18.3333C1.04199 18.675 1.32533 18.9583 1.66699 18.9583H15.8337C16.1753 18.9583 16.4587 18.675 16.4587 18.3333C16.4587 17.9916 16.1753 17.7083 15.8337 17.7083H14.5837V13.9666L18.3337 13.9583C18.6837 13.9583 18.9587 13.675 18.9587 13.3333V8.33329C18.9587 8.09996 18.8253 7.88329 18.617 7.77496ZM5.00033 5.74163C5.00033 4.58329 5.70866 4.16663 6.57533 4.16663H10.9337C11.792 4.16663 12.5003 4.58329 12.5003 5.74163V6.76663C12.5003 7.91663 11.792 8.33329 10.9253 8.33329H6.57533C5.70866 8.33329 5.00033 7.91663 5.00033 6.75829V5.74163ZM5.41699 10.2083H7.91699C8.25866 10.2083 8.54199 10.4916 8.54199 10.8333C8.54199 11.175 8.25866 11.4583 7.91699 11.4583H5.41699C5.07533 11.4583 4.79199 11.175 4.79199 10.8333C4.79199 10.4916 5.07533 10.2083 5.41699 10.2083Z" fill="#48494A"/>
</svg>
