<svg width="16" height="16" viewBox="0 0 16 16" fill="none" xmlns="http://www.w3.org/2000/svg">
<path d="M5.00033 2.66663H11.0003C11.4137 2.66663 11.7803 2.67996 12.107 2.72663C13.8603 2.91996 14.3337 3.74663 14.3337 5.99996V9.99996C14.3337 12.2533 13.8603 13.08 12.107 13.2733C11.7803 13.32 11.4137 13.3333 11.0003 13.3333H5.00033C4.58699 13.3333 4.22033 13.32 3.89366 13.2733C2.14033 13.08 1.66699 12.2533 1.66699 9.99996V5.99996C1.66699 3.74663 2.14033 2.91996 3.89366 2.72663C4.22033 2.67996 4.58699 2.66663 5.00033 2.66663Z" stroke="#999999" stroke-linecap="round" stroke-linejoin="round"/>
<path d="M9 6.66663H11.3333" stroke="#999999" stroke-linecap="round" stroke-linejoin="round"/>
<path d="M4.66699 10.3334H4.68033H11.3337" stroke="#999999" stroke-linecap="round" stroke-linejoin="round"/>
<path d="M6.73006 6.66671H6.73605" stroke="#999999" stroke-linecap="round" stroke-linejoin="round"/>
<path d="M4.73006 6.66671H4.73605" stroke="#999999" stroke-linecap="round" stroke-linejoin="round"/>
</svg>
