<svg width="16" height="16" viewBox="0 0 16 16" fill="none" xmlns="http://www.w3.org/2000/svg">
<path d="M4.8 1.33331H6.53333C8.66667 1.33331 10 2.66665 10 4.79998V7.49998H5.83333C5.56 7.49998 5.33333 7.72665 5.33333 7.99998C5.33333 8.27331 5.56 8.49998 5.83333 8.49998H10V11.2C10 13.3333 8.66667 14.6666 6.53333 14.6666H4.80667C2.67333 14.6666 1.34 13.3333 1.34 11.2V4.79998C1.33333 2.66665 2.66667 1.33331 4.8 1.33331Z" fill="#48494A"/>
<path d="M12.96 7.49998L11.58 6.11998C11.48 6.01998 11.4334 5.89331 11.4334 5.76664C11.4334 5.63998 11.48 5.50664 11.58 5.41331C11.7734 5.21998 12.0934 5.21998 12.2867 5.41331L14.52 7.64664C14.7134 7.83998 14.7134 8.15998 14.52 8.35331L12.2867 10.5866C12.0934 10.78 11.7734 10.78 11.58 10.5866C11.3867 10.3933 11.3867 10.0733 11.58 9.87998L12.96 8.49998H10V7.49998H12.96Z" fill="#48494A"/>
</svg>
