<svg width="20" height="20" viewBox="0 0 20 20" fill="none" xmlns="http://www.w3.org/2000/svg">
<g clip-path="url(#clip0_49_5462)">
<path d="M8.3335 15.8333C8.3335 16.75 9.0835 17.5 10.0002 17.5C10.9168 17.5 11.6668 16.75 11.6668 15.8333C11.6668 14.9167 10.9168 14.1667 10.0002 14.1667C9.0835 14.1667 8.3335 14.9167 8.3335 15.8333Z" fill="white" fill-opacity="0.8" stroke="white" stroke-opacity="0.8"/>
<path d="M8.3335 4.16665C8.3335 5.08331 9.0835 5.83331 10.0002 5.83331C10.9168 5.83331 11.6668 5.08331 11.6668 4.16665C11.6668 3.24998 10.9168 2.49998 10.0002 2.49998C9.0835 2.49998 8.3335 3.24998 8.3335 4.16665Z" fill="white" fill-opacity="0.8" stroke="white" stroke-opacity="0.8"/>
<path d="M8.3335 10C8.3335 10.9167 9.0835 11.6667 10.0002 11.6667C10.9168 11.6667 11.6668 10.9167 11.6668 10C11.6668 9.08335 10.9168 8.33335 10.0002 8.33335C9.0835 8.33335 8.3335 9.08335 8.3335 10Z" fill="white" fill-opacity="0.8" stroke="white" stroke-opacity="0.8"/>
</g>
<defs>
<clipPath id="clip0_49_5462">
<rect width="20" height="20" fill="white" transform="matrix(0 -1 1 0 0 20)"/>
</clipPath>
</defs>
</svg>
