<svg width="16" height="16" viewBox="0 0 16 16" fill="none" xmlns="http://www.w3.org/2000/svg">
<path d="M8.45202 13.3046C8.63518 13.3473 8.65196 13.5871 8.47356 13.6466L7.42023 13.9933C4.77356 14.8466 3.38023 14.1333 2.52023 11.4866L1.66689 8.85328C0.813561 6.20661 1.52023 4.80661 4.16689 3.95328L4.17756 3.94975C4.58042 3.81633 4.98127 4.22359 4.87926 4.63553C4.87288 4.66126 4.86654 4.68718 4.86023 4.71328L4.20689 7.50661C3.47356 10.6466 4.54689 12.3799 7.68689 13.1266L8.45202 13.3046Z" fill="#48494A"/>
<path d="M11.4465 2.13996L10.3331 1.87996C8.10646 1.3533 6.77979 1.78663 5.99979 3.39996C5.79979 3.80663 5.63979 4.29996 5.50646 4.86663L4.85313 7.65997C4.19979 10.4466 5.05979 11.82 7.83979 12.48L8.95979 12.7466C9.34646 12.84 9.70646 12.9 10.0398 12.9266C12.1198 13.1266 13.2265 12.1533 13.7865 9.74663L14.4398 6.95996C15.0931 4.1733 14.2398 2.7933 11.4465 2.13996ZM10.1931 8.88663C10.1331 9.1133 9.93313 9.25997 9.70646 9.25997C9.66646 9.25997 9.62646 9.2533 9.57979 9.24663L7.63979 8.7533C7.37313 8.68663 7.21313 8.4133 7.27979 8.14663C7.34646 7.87997 7.61979 7.71997 7.88646 7.78663L9.82646 8.27997C10.0998 8.34663 10.2598 8.61997 10.1931 8.88663ZM12.1465 6.6333C12.0865 6.85996 11.8865 7.00663 11.6598 7.00663C11.6198 7.00663 11.5798 6.99996 11.5331 6.9933L8.29979 6.1733C8.03313 6.10663 7.87313 5.8333 7.93979 5.56663C8.00646 5.29997 8.27979 5.13996 8.54646 5.20663L11.7798 6.02663C12.0531 6.08663 12.2131 6.35996 12.1465 6.6333Z" fill="#48494A"/>
</svg>
