<svg width="16" height="16" viewBox="0 0 16 16" fill="none" xmlns="http://www.w3.org/2000/svg">
<path d="M13.4605 9.3733L12.7071 8.11997C12.5405 7.84664 12.3938 7.31997 12.3938 6.99997V5.7533C12.3938 3.3333 10.4271 1.36664 8.01379 1.36664C5.59379 1.3733 3.62713 3.3333 3.62713 5.7533V6.9933C3.62713 7.3133 3.48046 7.83997 3.32046 8.1133L2.56713 9.36664C2.28046 9.8533 2.21379 10.4066 2.39379 10.8866C2.57379 11.3733 2.98046 11.76 3.51379 11.9333C4.23379 12.1733 4.96046 12.3466 5.70046 12.4733C5.77379 12.4866 5.84713 12.4933 5.92046 12.5066C6.01379 12.52 6.11379 12.5333 6.21379 12.5466C6.38713 12.5733 6.56046 12.5933 6.74046 12.6066C7.16046 12.6466 7.58713 12.6666 8.01379 12.6666C8.43379 12.6666 8.85379 12.6466 9.26713 12.6066C9.42046 12.5933 9.57379 12.58 9.72046 12.56C9.84046 12.5466 9.96046 12.5333 10.0805 12.5133C10.1538 12.5066 10.2271 12.4933 10.3005 12.48C11.0471 12.36 11.7871 12.1733 12.5071 11.9333C13.0205 11.76 13.4138 11.3733 13.6005 10.88C13.7871 10.38 13.7338 9.8333 13.4605 9.3733ZM8.50046 6.66664C8.50046 6.94664 8.27379 7.1733 7.99379 7.1733C7.71379 7.1733 7.48713 6.94664 7.48713 6.66664V4.59997C7.48713 4.31997 7.71379 4.0933 7.99379 4.0933C8.27379 4.0933 8.50046 4.31997 8.50046 4.59997V6.66664Z" fill="#48494A"/>
<path d="M9.88678 13.34C9.60678 14.1133 8.86678 14.6666 8.00012 14.6666C7.47345 14.6666 6.95345 14.4533 6.58678 14.0733C6.37345 13.8733 6.21345 13.6066 6.12012 13.3333C6.20678 13.3466 6.29345 13.3533 6.38678 13.3666C6.54012 13.3866 6.70012 13.4066 6.86012 13.42C7.24012 13.4533 7.62678 13.4733 8.01345 13.4733C8.39345 13.4733 8.77345 13.4533 9.14678 13.42C9.28678 13.4066 9.42678 13.4 9.56012 13.38C9.66678 13.3666 9.77345 13.3533 9.88678 13.34Z" fill="#48494A"/>
</svg>
