<svg width="20" height="20" viewBox="0 0 20 20" fill="none" xmlns="http://www.w3.org/2000/svg">
<g clip-path="url(#clip0_49_5404)">
<path d="M5.56605 11.6337C5.78879 11.6337 6.0065 11.5662 6.19389 11.4362L11.2719 7.92103C11.7614 7.582 11.8957 6.92181 11.578 6.41829C11.4189 6.16663 11.1715 5.9923 10.8809 5.92802C10.5908 5.86315 10.292 5.91658 10.0413 6.07786L4.84762 9.41914C4.59556 9.58123 4.42343 9.83189 4.36257 10.1251C4.30152 10.4182 4.35936 10.7168 4.52506 10.9653L4.64115 11.1396C4.80745 11.3891 5.06112 11.5574 5.35556 11.6136C5.42586 11.6271 5.49615 11.6337 5.56605 11.6337ZM5.22561 10.7508L5.10952 10.576C5.04847 10.4848 5.02718 10.3756 5.04987 10.2683C5.07217 10.1607 5.13523 10.0689 5.22722 10.0094L10.4211 6.66814C10.4876 6.62557 10.5631 6.60367 10.6402 6.60367C10.6696 6.60367 10.6995 6.60669 10.729 6.61331C10.8353 6.63681 10.926 6.70088 10.9843 6.79307C11.1008 6.97765 11.0516 7.21967 10.8722 7.34379L5.79441 10.859C5.70383 10.9219 5.59497 10.9444 5.48732 10.9241C5.37926 10.9034 5.28627 10.8419 5.22561 10.7508Z" fill="white"/>
<path d="M19.2978 13.0418C19.2978 11.541 17.1642 8.60947 16.4897 7.72012V4.99664C16.4897 4.31376 16.0358 3.74134 15.4162 3.54773V2.3093C15.4162 1.61257 14.8492 1.04578 14.1527 1.04578H12.096C11.3995 1.04578 10.8325 1.61257 10.8325 2.3093V3.47181H10.6306C10.3255 3.47181 10.0307 3.56179 9.77801 3.73251L3.28564 8.11097C2.5423 8.61228 2.09863 9.447 2.09863 10.3434V17.6769C2.09863 18.9579 3.14063 19.9999 4.42163 19.9999H14.1667C15.4477 19.9999 16.4899 18.9579 16.4899 17.6769V16.2688C18.0738 16.0466 19.2978 14.6861 19.2978 13.0418ZM11.5346 2.3093C11.5346 1.9998 11.7865 1.74774 12.096 1.74774H14.1527C14.4622 1.74774 14.714 1.9998 14.714 2.3093V3.47181H11.5346V2.3093ZM14.1667 19.2979H4.42143C3.52746 19.2979 2.80039 18.5707 2.80039 17.6769V10.3434C2.80039 9.68058 3.12858 9.06358 3.67829 8.69282L10.1709 4.31416C10.307 4.22237 10.4659 4.17356 10.6306 4.17356H14.9651C15.4184 4.17356 15.7878 4.54292 15.7878 4.99643V7.46625C15.7789 7.47509 15.7667 7.4787 15.7588 7.48854C15.4531 7.87999 12.7732 11.3617 12.7732 13.0418C12.7732 14.757 14.1047 16.1641 15.7878 16.2917V17.6771C15.7878 18.5707 15.0607 19.2979 14.1667 19.2979ZM16.0356 15.6022C14.624 15.6022 13.4754 14.4535 13.4754 13.0418C13.4754 11.9467 15.1276 9.50284 16.0356 8.2839C16.944 9.50264 18.5958 11.9459 18.5958 13.0418C18.5958 14.4535 17.4469 15.6022 16.0356 15.6022Z" fill="white"/>
<path d="M5.15451 5.07199C5.85828 5.07199 6.4311 4.49938 6.4311 3.79541C6.4311 3.20914 5.66567 2.18321 5.43108 1.88274C5.29812 1.71243 5.01091 1.71243 4.87795 1.88274C4.64336 2.18321 3.87793 3.20914 3.87793 3.79541C3.87813 4.49938 4.45074 5.07199 5.15451 5.07199ZM5.15451 2.69236C5.46482 3.14125 5.72914 3.61465 5.72914 3.79541C5.72914 4.11214 5.47125 4.37003 5.15451 4.37003C4.83798 4.37003 4.58009 4.11214 4.58009 3.79541C4.58009 3.61505 4.8442 3.14145 5.15451 2.69236Z" fill="white"/>
<path d="M3.27192 2.0404C3.27192 1.45413 2.50649 0.428206 2.2719 0.127739C2.13894 -0.0425795 1.85173 -0.0425795 1.71877 0.127739C1.48418 0.428206 0.71875 1.45413 0.71875 2.0404C0.71875 2.74437 1.29157 3.31699 1.99533 3.31699C2.6991 3.31699 3.27192 2.74437 3.27192 2.0404ZM1.99553 2.61503C1.6788 2.61503 1.42091 2.35714 1.42091 2.0404C1.42091 1.86004 1.68523 1.38645 1.99553 0.937151C2.30564 1.38625 2.56996 1.85964 2.56996 2.0404C2.56996 2.35734 2.31227 2.61503 1.99553 2.61503Z" fill="white"/>
<path d="M17.5428 12.4534C17.3488 12.4534 17.1918 12.6106 17.1918 12.8044C17.1918 13.4817 16.6406 14.033 15.9632 14.033C15.7692 14.033 15.6123 14.1901 15.6123 14.3839C15.6123 14.5777 15.7692 14.735 15.9632 14.735C17.0277 14.735 17.8937 13.8689 17.8937 12.8044C17.8937 12.6106 17.7369 12.4534 17.5428 12.4534Z" fill="white"/>
<path d="M12.98 16.8411H5.60869C5.41467 16.8411 5.25781 16.9981 5.25781 17.1919C5.25781 17.3858 5.41467 17.543 5.60869 17.543H12.98C13.174 17.543 13.3309 17.3858 13.3309 17.1919C13.3309 16.9981 13.174 16.8411 12.98 16.8411Z" fill="white"/>
</g>
<defs>
<clipPath id="clip0_49_5404">
<rect width="20" height="20" fill="white"/>
</clipPath>
</defs>
</svg>
