<svg width="22" height="22" viewBox="0 0 22 22" fill="none" xmlns="http://www.w3.org/2000/svg">
<path d="M14.7812 2.40625C15.2559 2.40625 15.6406 2.79101 15.6406 3.26562V4.125C14.2083 4.125 12.9479 4.125 11.5156 4.125V3.26562C11.5156 2.79101 11.9004 2.40625 12.375 2.40625H14.7812Z" fill="#48494A"/>
<path fill-rule="evenodd" clip-rule="evenodd" d="M16.0625 5.85938C16.0625 5.38476 15.6777 5 15.2031 5H9.20866C8.75475 5 8.31927 5.17954 7.99728 5.49945L3.50737 9.96019C3.18262 10.2828 3 10.7217 3 11.1795V18.0625C3 19.0118 3.76952 19.7812 4.71875 19.7812H11.4724C10.0021 18.9145 9.01562 17.3146 9.01562 15.4844C9.01562 12.7316 11.2472 10.5 14 10.5C14.7356 10.5 15.434 10.6593 16.0625 10.9454V5.85938ZM10.9222 7.15973C11.4505 7.68806 11.4505 8.54463 10.9222 9.07294L7.24481 12.7503C6.71651 13.2786 5.85993 13.2786 5.3316 12.7503C4.8033 12.222 4.8033 11.3654 5.3316 10.8371L9.00896 7.15973C9.53728 6.6314 10.3939 6.63142 10.9222 7.15973Z" fill="#48494A"/>
<path fill-rule="evenodd" clip-rule="evenodd" d="M14.4375 19.5938C16.8106 19.5938 18.7344 17.67 18.7344 15.2969C18.7344 12.9238 16.8106 11 14.4375 11C12.0644 11 10.1406 12.9238 10.1406 15.2969C10.1406 17.67 12.0644 19.5938 14.4375 19.5938ZM16.1562 15.8009C16.1562 16.7566 15.3867 17.5312 14.4375 17.5312C13.4883 17.5312 12.7188 16.7566 12.7188 15.8009C12.7188 15.0623 13.7455 13.7354 14.2118 13.1708C14.3311 13.0264 14.5439 13.0264 14.6632 13.1708C15.1295 13.7354 16.1562 15.0623 16.1562 15.8009Z" fill="#48494A"/>
</svg>
