<svg width="16" height="16" viewBox="0 0 16 16" fill="none" xmlns="http://www.w3.org/2000/svg">
<path d="M12.6267 3.61342L9.18005 1.62008C8.52005 1.24008 7.48672 1.24008 6.82672 1.62008L3.34672 3.62675C1.96672 4.56008 1.88672 4.70008 1.88672 6.18675V9.80675C1.88672 11.2934 1.96672 11.4401 3.37339 12.3867L6.82005 14.3801C7.15338 14.5734 7.58005 14.6667 8.00005 14.6667C8.42005 14.6667 8.84672 14.5734 9.17339 14.3801L12.6534 12.3734C14.0334 11.4401 14.1134 11.3001 14.1134 9.81342V6.18675C14.1134 4.70008 14.0334 4.56008 12.6267 3.61342ZM8.00005 10.1667C6.80672 10.1667 5.83339 9.19342 5.83339 8.00008C5.83339 6.80675 6.80672 5.83342 8.00005 5.83342C9.19339 5.83342 10.1667 6.80675 10.1667 8.00008C10.1667 9.19342 9.19339 10.1667 8.00005 10.1667Z" fill="#48494A"/>
</svg>
