<svg width="16" height="16" viewBox="0 0 16 16" fill="none" xmlns="http://www.w3.org/2000/svg">
<g clip-path="url(#clip0_116_1103)">
<path d="M8.09318 5.07996H4.57984C3.33984 5.07996 3.05985 5.69997 2.90651 6.46663L2.33984 9.16663H10.3398L9.77318 6.46663C9.60652 5.69997 9.33318 5.07996 8.09318 5.07996Z" stroke="#999999" stroke-linecap="round" stroke-linejoin="round"/>
<path d="M11.3264 13.5732C11.3798 14.1599 10.9131 14.6666 10.3131 14.6666H9.37309C8.83309 14.6666 8.75976 14.4332 8.65976 14.1532L8.55975 13.8533C8.41975 13.4466 8.32642 13.1666 7.60642 13.1666H5.04643C4.32643 13.1666 4.21976 13.4799 4.09309 13.8533L3.99309 14.1532C3.89976 14.4399 3.82642 14.6666 3.27975 14.6666H2.33975C1.73975 14.6666 1.26643 14.1599 1.32643 13.5732L1.60643 10.5266C1.67976 9.77324 1.81975 9.15991 3.13309 9.15991H9.51309C10.8264 9.15991 10.9664 9.77324 11.0398 10.5266L11.3264 13.5732Z" stroke="#999999" stroke-linecap="round" stroke-linejoin="round"/>
<path d="M2.33301 7.66663H1.83301" stroke="#999999" stroke-linecap="round" stroke-linejoin="round"/>
<path d="M10.833 7.66663H10.333" stroke="#999999" stroke-linecap="round" stroke-linejoin="round"/>
<path d="M3.33301 11.1666H4.83301" stroke="#999999" stroke-linecap="round" stroke-linejoin="round"/>
<path d="M7.83301 11.1666H9.33301" stroke="#999999" stroke-linecap="round" stroke-linejoin="round"/>
<path d="M12.4731 5.82665C12.6598 5.39332 12.5931 4.80666 12.2464 4.29333C11.9064 3.77999 11.3864 3.49332 10.9131 3.49999" stroke="#999999" stroke-linecap="round" stroke-linejoin="round"/>
<path d="M14.5471 6.48669C14.8271 5.48003 14.6271 4.24672 13.9137 3.18005C13.2004 2.11339 12.1337 1.46004 11.0938 1.33337" stroke="#999999" stroke-linecap="round" stroke-linejoin="round"/>
</g>
<defs>
<clipPath id="clip0_116_1103">
<rect width="16" height="16" fill="white"/>
</clipPath>
</defs>
</svg>
