<svg width="20" height="20" viewBox="0 0 20 20" fill="none" xmlns="http://www.w3.org/2000/svg">
<g clip-path="url(#clip0_133_2125)">
<path d="M3.03477 17.848C3.52211 17.848 3.91719 17.453 3.91719 16.9656C3.91719 16.4783 3.52211 16.0832 3.03477 16.0832C2.54742 16.0832 2.15234 16.4783 2.15234 16.9656C2.15234 17.453 2.54742 17.848 3.03477 17.848Z" fill="#48494A"/>
<path d="M0.888087 14.8191C0.463567 15.2437 0.174467 15.7846 0.0573461 16.3734C-0.0597746 16.9622 0.000344053 17.5726 0.2301 18.1272C0.459856 18.6819 0.848929 19.156 1.34812 19.4895C1.84731 19.8231 2.4342 20.0011 3.03457 20.0011C3.63494 20.0011 4.22183 19.8231 4.72102 19.4895C5.22021 19.156 5.60929 18.6819 5.83904 18.1272C6.0688 17.5726 6.12892 16.9622 6.0118 16.3734C5.89468 15.7846 5.60558 15.2437 5.18106 14.8191C4.61142 14.2505 3.83944 13.9312 3.03457 13.9312C2.2297 13.9312 1.45772 14.2505 0.888087 14.8191ZM4.07285 18.0039C3.8675 18.2093 3.60586 18.3491 3.32103 18.4058C3.03619 18.4624 2.74096 18.4334 2.47265 18.3222C2.20434 18.2111 1.97501 18.0229 1.81367 17.7814C1.65232 17.5399 1.5662 17.256 1.5662 16.9656C1.5662 16.6752 1.65232 16.3913 1.81367 16.1498C1.97501 15.9084 2.20434 15.7202 2.47265 15.609C2.74096 15.4979 3.03619 15.4688 3.32103 15.5255C3.60586 15.5821 3.8675 15.722 4.07285 15.9273C4.34784 16.2029 4.50227 16.5763 4.50227 16.9656C4.50227 17.3549 4.34784 17.7283 4.07285 18.0039Z" fill="#48494A"/>
<path d="M19.6852 1.92185L18.0781 0.314818C17.876 0.112921 17.6021 -0.000488281 17.3164 -0.000488281C17.0307 -0.000488281 16.7568 0.112921 16.5547 0.314818L15.6953 1.17419L18.825 4.30388L19.6844 3.44451C19.8861 3.24256 19.9995 2.96881 19.9997 2.68334C19.9998 2.39787 19.8867 2.12401 19.6852 1.92185Z" fill="#48494A"/>
<path d="M12.0676 5.30115L11.0965 6.27224L10.4715 5.64724C10.3715 5.54721 10.2527 5.46786 10.122 5.41373C9.99131 5.35959 9.85123 5.33173 9.70977 5.33173C9.5683 5.33173 9.42822 5.35959 9.29753 5.41373C9.16683 5.46786 9.04808 5.54721 8.94805 5.64724C8.84802 5.74727 8.76867 5.86602 8.71453 5.99672C8.6604 6.12742 8.63253 6.2675 8.63253 6.40896C8.63253 6.55042 8.6604 6.6905 8.71453 6.8212C8.76867 6.95189 8.84802 7.07065 8.94805 7.17068L9.57305 7.79568L8.8793 8.48943L8.2543 7.86443C8.15427 7.7644 8.03551 7.68505 7.90482 7.63091C7.77412 7.57678 7.63404 7.54891 7.49258 7.54891C7.35111 7.54891 7.21103 7.57678 7.08034 7.63091C6.94964 7.68505 6.83089 7.7644 6.73086 7.86443C6.63083 7.96446 6.55148 8.08321 6.49734 8.21391C6.44321 8.3446 6.41534 8.48468 6.41534 8.62615C6.41534 8.76761 6.44321 8.90769 6.49734 9.03839C6.55148 9.16908 6.63083 9.28784 6.73086 9.38787L7.35586 10.0129L6.66172 10.707L6.03672 10.082C5.8347 9.87999 5.5607 9.76649 5.275 9.76649C4.9893 9.76649 4.7153 9.87999 4.51328 10.082C4.31126 10.284 4.19777 10.558 4.19777 10.8437C4.19777 10.9852 4.22563 11.1253 4.27977 11.256C4.3339 11.3867 4.41325 11.5054 4.51328 11.6054L5.13828 12.2304L3.91211 13.4566C4.548 13.6153 5.12875 13.944 5.59218 14.4074C6.05562 14.8708 6.38428 15.4516 6.54297 16.0875L7.77305 14.8586L8.39805 15.4836C8.49808 15.5836 8.61683 15.6629 8.74753 15.7171C8.87822 15.7712 9.0183 15.7991 9.15977 15.7991C9.30123 15.7991 9.44131 15.7712 9.572 15.7171C9.7027 15.6629 9.82145 15.5836 9.92148 15.4836C10.0215 15.3835 10.1009 15.2648 10.155 15.1341C10.2091 15.0034 10.237 14.8633 10.237 14.7219C10.237 14.5804 10.2091 14.4403 10.155 14.3096C10.1009 14.1789 10.0215 14.0602 9.92148 13.9601L9.29648 13.3351L9.99062 12.641L10.6156 13.266C10.8176 13.468 11.0916 13.5815 11.3773 13.5815C11.663 13.5815 11.937 13.468 12.1391 13.266C12.3411 13.064 12.4546 12.79 12.4546 12.5043C12.4546 12.2186 12.3411 11.9446 12.1391 11.7426L11.5141 11.1176L12.2078 10.4238L12.8328 11.0488C13.0348 11.2508 13.3088 11.3643 13.5945 11.3643C13.8802 11.3643 14.1542 11.2508 14.3562 11.0488C14.5583 10.8468 14.6718 10.5728 14.6718 10.2871C14.6718 10.0014 14.5583 9.72739 14.3562 9.52537L13.7312 8.90037L14.7023 7.92927L12.0676 5.30115Z" fill="#48494A"/>
<path d="M14.9061 1.21521C14.704 1.01331 14.43 0.899902 14.1443 0.899902C13.8587 0.899902 13.5847 1.01331 13.3826 1.21521L11.4455 3.15466C11.3249 3.2749 11.2348 3.42222 11.1826 3.58435L16.417 8.81873C16.5791 8.76658 16.7264 8.67645 16.8467 8.55583L18.7861 6.61638C18.988 6.4143 19.1014 6.14032 19.1014 5.85466C19.1014 5.569 18.988 5.29503 18.7861 5.09294L14.9061 1.21521Z" fill="#48494A"/>
</g>
<defs>
<clipPath id="clip0_133_2125">
<rect width="20" height="20" fill="white"/>
</clipPath>
</defs>
</svg>
