<svg width="16" height="16" viewBox="0 0 16 16" fill="none" xmlns="http://www.w3.org/2000/svg">
<path d="M11.333 1.62H4.66634C2.66634 1.62 1.33301 2.95333 1.33301 4.95333V8.95333C1.33301 10.9533 2.66634 12.2867 4.66634 12.2867V13.7067C4.66634 14.24 5.25967 14.56 5.69967 14.26L8.66634 12.2867H11.333C13.333 12.2867 14.6663 10.9533 14.6663 8.95333V4.95333C14.6663 2.95333 13.333 1.62 11.333 1.62ZM7.99967 9.73333C7.71967 9.73333 7.49967 9.50666 7.49967 9.23333C7.49967 8.95999 7.71967 8.73333 7.99967 8.73333C8.27967 8.73333 8.49967 8.95999 8.49967 9.23333C8.49967 9.50666 8.27967 9.73333 7.99967 9.73333ZM8.83967 6.96666C8.57967 7.13999 8.49967 7.25333 8.49967 7.43999V7.57999C8.49967 7.85333 8.27301 8.07999 7.99967 8.07999C7.72634 8.07999 7.49967 7.85333 7.49967 7.57999V7.43999C7.49967 6.66666 8.06634 6.28666 8.27967 6.13999C8.52634 5.97333 8.60634 5.85999 8.60634 5.68666C8.60634 5.35333 8.33301 5.07999 7.99967 5.07999C7.66634 5.07999 7.39301 5.35333 7.39301 5.68666C7.39301 5.95999 7.16634 6.18666 6.89301 6.18666C6.61967 6.18666 6.39301 5.95999 6.39301 5.68666C6.39301 4.79999 7.11301 4.07999 7.99967 4.07999C8.88634 4.07999 9.60634 4.79999 9.60634 5.68666C9.60634 6.44666 9.04634 6.82666 8.83967 6.96666Z" fill="#48494A"/>
</svg>
